<?xml version="1.0" encoding="UTF-8"?>
<svg id="Layer_2" data-name="Layer 2" xmlns="http://www.w3.org/2000/svg" viewBox="0 0 171.68 219.63">
  <defs>
    <style>
      .cls-1 {
        fill: #e769a7;
      }

      .cls-1, .cls-2, .cls-3, .cls-4, .cls-5, .cls-6, .cls-7, .cls-8, .cls-9, .cls-10, .cls-11, .cls-12, .cls-13, .cls-14, .cls-15, .cls-16, .cls-17, .cls-18, .cls-19, .cls-20, .cls-21, .cls-22, .cls-23, .cls-24, .cls-25, .cls-26, .cls-27, .cls-28, .cls-29, .cls-30, .cls-31, .cls-32 {
        stroke-width: 0px;
      }

      .cls-2 {
        fill: #b42160;
      }

      .cls-3, .cls-33 {
        fill: #bfdfe0;
      }

      .cls-33 {
        stroke: #231f20;
      }

      .cls-33, .cls-34 {
        stroke-miterlimit: 10;
      }

      .cls-4 {
        fill: #aa205b;
      }

      .cls-5 {
        fill: #341a11;
      }

      .cls-6 {
        fill: #e01577;
      }

      .cls-7 {
        fill: #ad215d;
      }

      .cls-8 {
        fill: #331910;
      }

      .cls-9 {
        fill: #ca1d6c;
      }

      .cls-10 {
        fill: #331b12;
      }

      .cls-11 {
        fill: #9f1f54;
      }

      .cls-12 {
        fill: #fff;
      }

      .cls-13 {
        fill: #331a11;
      }

      .cls-34 {
        fill: none;
        stroke: #58595b;
      }

      .cls-14 {
        fill: #e11478;
      }

      .cls-15 {
        fill: #e3eced;
      }

      .cls-16 {
        fill: #e5e1df;
      }

      .cls-17 {
        fill: #6c556d;
      }

      .cls-18 {
        fill: #d6eef0;
      }

      .cls-19 {
        fill: #9f1e54;
      }

      .cls-20 {
        fill: #e54b9b;
      }

      .cls-21 {
        fill: #e1ecec;
      }

      .cls-22 {
        fill: #bf2066;
      }

      .cls-23 {
        fill: #331911;
      }

      .cls-24 {
        fill: #341a12;
      }

      .cls-25 {
        fill: #341b13;
      }

      .cls-26 {
        fill: #eb98c1;
      }

      .cls-27 {
        fill: #d41b71;
      }

      .cls-28 {
        fill: #d31b71;
      }

      .cls-29 {
        fill: #f1eeec;
      }

      .cls-30 {
        fill: #413042;
      }

      .cls-31 {
        fill: #b52060;
      }

      .cls-35 {
        opacity: .71;
      }

      .cls-32 {
        fill: #dcabcf;
      }
    </style>
  </defs>
  <g id="Robot">
    <g id="Logo_3" data-name="Logo 3">
      <g>
        <path class="cls-8" d="m104.52,0c.4.16.9.21,1.5.2,4.09-.12,8.18-.07,12.28-.03,9.03.08,16.02,7.15,16.14,16.2.03,1.89.2,3.49.23,5.98l.03-.3q.01,4.06-.13,7.8c0,7.15.25,6.89-.21,14.22-.21,3.39.06,2.43,0,6.09-.07,1.63-.03,2.74.02,4.25.07,2.21.18,4.43-.26,6.64-1.48,7.6-7.98,13.11-15.74,13.19-5.49.06-10.99.09-16.48-.03-1.63-.03-2.02.47-1.87,1.96.15,1.47-.49,2.97.09,4.44.28,2.61.28,2.57,2.97,2.61,4.01.06,8.02-.2,12.02.14,3.09,1.17,4.46,3.41,4.2,6.68-.01.17,0,.35,0,.53q0,3.27,3.3,3.46c2.73.15,4.2,1.6,4.13,4.36-.03,1.28.44,1.83,1.57,2.27,2.77,1.09,5.5,2.28,8.21,3.5.85.38,1.4.36,2.15-.31,4.91-4.36,11.69-4.27,16.14.15,4.55,4.52,4.74,11.33.4,16.28-.58.66-.71,1.19-.48,2.01.86,3.15,1.69,6.31,2.43,9.49.25,1.1.77,1.61,1.83,2.01,4.98,1.86,8.17,7.03,7.53,12.01-.72,5.57-4.8,9.8-10.17,10.52-5.24.71-10.49-2.42-12.45-7.42-1.78-4.54-.49-9.86,3.34-13.03,1.03-.86,1.21-1.59.87-2.8-.73-2.58-1.35-5.19-1.94-7.81-.2-.86-.59-1.24-1.47-1.4-5.03-.97-8.18-4.01-9.46-8.94-.22-.85-.59-1.31-1.38-1.57-1.1-.37-2.18-.8-3.27-1.21-.05-.03-.1-.07-.15-.09-2.13-.69-3.59-.09-4.14,2.2-.34.07-.36.34-.37.61-.05.18-.04.41-.32.4-1.44.99-3.07,1.08-4.71.93-1.35-.12-1.64.39-1.63,1.67,0,3.03.27,6.08-.26,9.1-.53,3.05-1.65,5.85-3.47,8.33-4.22,5.74-8.5,11.45-12.75,17.18-3.31,4.46-7.66,7.32-13.11,8.41-1.06.21-1.22.55-1.2,1.57.09,4.09.14,8.19,0,12.28-.05,1.45.42,1.59,1.64,1.58,8.13-.1,16.25-.03,24.38-.23,4.06-.1,7.27,1.5,10.04,4.19,8.85,8.62,8.8,25.59-.05,34.22-1.09,1.07-2.33,1.94-3.77,2.75.63.51,1.28.32,1.86.32,15.55,0,31.1-.03,46.66-.02.92,0,2.5-.56,2.47,1.05-.03,1.44-1.53.92-2.42.92-55.6.02-111.21.02-166.81,0-.91,0-2.49.62-2.45-1.04.04-1.43,1.53-.93,2.42-.93,14.73-.01,29.47,0,44.2.02.51,0,1.01,0,1.6-.15-4.11-2.31-7.02-5.65-8.7-9.93-3.52-8.99-2.77-17.55,3.25-25.3,3.03-3.91,7.15-5.84,12.19-5.8,7.83.06,15.67-.04,23.5,0,1.19,0,1.53-.2,1.48-1.52-.13-4.21-.08-8.42-.01-12.63.01-.76.04-1.13-.85-1.3-5.93-1.1-10.46-4.33-13.97-9.19-3.8-5.25-7.73-10.42-11.63-15.6-2.95-3.92-4.46-8.29-4.37-13.21.04-1.81-.04-3.63.02-5.44.04-.98-.25-1.42-1.27-1.29-.52.06-1.05.05-1.58.03-3.33-.1-4.81-1.43-4.57-4.77.17-2.44-.7-3.54-2.92-4.27-2.38-.77-4.64-1.91-6.92-2.94-.76-.34-1.27-.41-1.99.24-5,4.47-11.91,4.36-16.41-.18-4.38-4.42-4.5-11.3-.22-16.16.6-.68.65-1.26.44-2.04-.82-3.1-1.66-6.2-2.39-9.33-.26-1.12-.71-1.73-1.87-2.16-4.99-1.86-8.21-7.12-7.51-12,.84-5.79,5.03-10.03,10.37-10.49,5.67-.49,10.72,2.74,12.42,7.94,1.5,4.59.13,9.49-3.68,12.66-.85.71-1.06,1.29-.76,2.36.74,2.64,1.32,5.32,1.93,8,.2.89.59,1.29,1.58,1.49,5.01,1,8.14,4.07,9.43,9,.17.66.34,1.14,1.07,1.41,2.08.78,4.12,1.65,6.17,2.49.54.22,1.05.63,1.3-.37.61-2.41,2.39-3.1,4.66-3.1,2.71,0,2.71-.04,2.7-2.67,0-.64,0-1.29,0-1.93.03-3.89,2.16-6.07,6.09-6.11,3.92-.05,7.84-.06,11.75.01,1.17.02,1.49-.32,1.46-1.47-.05-1.96.09-3.91.02-5.88-.04-1.31-.26-1.8-1.72-1.77-5.32.1-10.64.05-15.96.04-9.68-.01-16.96-7.05-16.62-16.68.05-1.28-.03-2.41-.27-3.4"/>
        <path class="cls-8" d="m33.93,21.53c.09-.28.13-.59.13-.96,0-2.51-.24-5.02.29-7.52C35.9,5.65,42.25.3,49.79.17c4.38-.07,8.77-.05,13.15,0,.28,0,.52-.01.74-.06"/>
        <rect class="cls-8" x="34.04" y="19.36" width="53.66" height="38.08"/>
        <rect class="cls-8" x="60.69" y=".12" width="47.11" height="17.68"/>
        <rect class="cls-8" x="36.9" y="8.96" width="47.11" height="17.68"/>
        <rect class="cls-8" x="51.1" y="1.82" width="15.59" height="9.85"/>
        <path class="cls-31" d="m131.95,61.29c-.95,5.71-6.66,10.74-12.73,10.88-6.66.16-13.32.07-19.98.07-16.18,0-32.36.02-48.55,0-7.13-.01-12.53-4.15-14.3-10.85-.34-1.31-.44-2.66-.44-3.99-.02-13.5-.05-26.99,0-40.49.03-7.12,4.1-12.49,10.65-14.32.68-.19,1.36-.31,2.07-.26,3.07.05,6.14,0,9.21.04,2.73.03,5.46-.07,8.18-.18.18,0,.36,0,.54.03.41.55.09,1.04-.11,1.54.82-.21,1.64-.16,2.46-.16,10.22,0,20.44,0,30.66,0,.94,0,1.86-.06,2.75-.4.4-.17.56-.63.99-.76,1.26-.46,2.53-.06,3.79-.08,3.65-.07,7.31.16,10.96-.16.57-.05,1.16-.11,1.72.13,5.33.24,10.86,4.85,11.82,9.85.71,13.75.12,27.5.31,41.26.04,2.62,0,5.25,0,7.87Z"/>
        <path class="cls-31" d="m84.42,85.26c9.41,0,18.82,0,28.23,0,3.45,0,4.64,1.2,4.64,4.63,0,11.11-.03,22.21.02,33.32.02,4.38-1.32,8.23-3.94,11.71-4.04,5.37-8.17,10.67-12,16.19-7.84,11.31-26.65,10.92-34.1.21-3.97-5.7-8.29-11.15-12.44-16.73-2.44-3.29-3.71-6.97-3.71-11.09.01-11.28,0-22.56,0-33.84,0-3.16,1.31-4.4,4.54-4.4,9.58,0,19.17,0,28.75,0h0Z"/>
        <path class="cls-1" d="m21.08,86.54c5.67-.89,11.2,4.68,10.26,10.34-.81,4.92-3.21,7.71-7.44,8.65-3.98.54-6.81-1.34-8.21-5.55-1.1-3.32-.86-6.53.9-9.59,1.05-1.81,2.35-3.31,4.48-3.85Z"/>
        <path class="cls-1" d="m147.03,121.99c-5.31.31-10.29-4.05-10.08-9.13.26-6.34,4.29-10.39,10.07-10.12,2.4.56,4.01,2.15,4.99,4.26,2,4.26,1.85,8.43-1.04,12.32-1.01,1.36-2.32,2.24-3.95,2.67Z"/>
        <path class="cls-17" d="m48.09,184.82c.13-.12.26-.24.39-.35,1.07-1.86,4.19-3.45,6.28-3.15.51.07,1.01.18,1.53.14,3.13-.58,6.28-.4,9.41-.14.63.05,1.29.29,1.89.09,2.75-.9,5.57-.3,8.35-.44.73-.04,1.35.34,1.97.67.53.13,1.02.05,1.45-.31.33-.36.73-.61,1.21-.64,2.44-.15,4.89-.15,7.34,0,.48.03.88.28,1.21.64.61.49,1.23.51,1.85.02.2-.22.41-.48.7-.5,3.05-.26,6.12-.77,9.11.4.33,0,.65.01.98.02.87-.53,1.82-.74,2.84-.67,2.58.18,5.24-.49,7.74.68.22,0,.43-.02.65-.02,2.12-.73,5.42.46,7.02,2.54.24.24.48.47.71.71,2.39,1.3,3.94,3.2,4.28,5.97-.46.9-.74,1.75.64,2.08,1.83,2.15,1.83,7.5,0,9.45-.34.14-.68.27-1.02.41-.33-.1-.53-.31-.61-.65,0-1.75.3-3.48.3-5.23.01-7.13-7.22-13.48-13.77-13.31-17.11.45-34.25.16-51.37.15-3.84,0-7.24,1.06-10.18,3.58-1.22,1.04-2,2.43-3.08,3.58-.62.44-1.08,1.19-2.01,1.05-.23-.19-.35-.44-.39-.73.71-2.64,1.78-5,4.61-6.01Z"/>
        <path class="cls-17" d="m124.28,202.01c.11.13.21.26.32.39,0,.49-.08.99.3,1.4.17.17.32.4.24.62-.85,2.37-1.81,4.66-4.43,5.65-.23.24-.46.49-.69.73-1.18,1.93-3.17,2.44-5.17,2.93-1.92-.7-3.78.26-5.67.22-5.57-.13-11.14-.22-16.71-.27-2.02-.02-4.04.1-6.06.09-5.18-.01-10.36.05-15.53-.06-4.07-.09-8.13.16-12.2.08-1.44-.03-2.86-.79-4.32-.16-2.32-.41-4.67-.77-5.86-3.23-.2-.49-.6-.67-1.09-.72-1.96-.79-3.91-3.77-3.85-5.88.13-.14.27-.27.4-.41.2-.46.53-.6.99-.4.62.39.9,1.06,1.27,1.65,2.93,4.63,7.15,6.88,12.61,6.88,17.12,0,34.24-.04,51.35.02,5.84.02,9.82-2.79,12.61-7.67.4-.7.61-1.54,1.48-1.86Z"/>
        <path class="cls-1" d="m160.75,141.7c-4.67,2.21-9.69,2.63-14.75,2.86-.9.04-.87-.54-.79-1.16.3-2.2,1.15-4.11,2.87-5.59.35.27.36.7.5,1.07.28.75.85,1.07,1.61,1.01.61-.05,1.16-.32,1.29-.95.16-.8-.35-1.28-1.04-1.58-.36-.16-.77-.25-.99-.64,1.68-1.23,3.57-1.78,5.65-1.7,3.18.52,4.64,2.84,5.77,5.51.17.39.15.8-.13,1.16Z"/>
        <path class="cls-1" d="m18.76,71.88c-1.06.83-2.3,1.2-3.61,1.4-4.15.83-6.58-2.5-7.62-5.18-.2-.51-.17-1.03.25-1.46,4.64-2.03,9.59-2.45,14.55-2.8.83-.06,1.02.34.91,1.06-.3,2.01-.93,3.85-2.48,5.26-.56-.13-.77-.65-1.13-1.01-.79-.79-1.69-.83-2.4,0-.76.89-.04,1.44.68,1.9.34.21.72.38.84.81Z"/>
        <path class="cls-20" d="m147.03,121.99c2.41-1.54,4.51-3.43,5.23-6.28,1.22-4.85.4-9.45-5.24-12.98,5.14.1,9.48,4.55,9.38,9.62-.11,5.3-4.27,9.58-9.37,9.63Z"/>
        <path class="cls-20" d="m21.08,86.54c-2.94,2.13-4.97,4.77-5.42,8.56-.44,3.67,1.88,8.57,5.13,10.19,1,.5,2.08.1,3.11.25-3.88,1.23-8.77-1.08-10.79-5.09-3.11-6.18,1.26-13.81,7.97-13.91Z"/>
        <path class="cls-1" d="m124.6,97.43c.48,1.18.18,2.42.19,3.62.04,3.33.05,6.66.05,9.99,0,.62.19,1.29-.23,1.87-.74-.52-.5-1.35-.65-2.07-.07-.33-.04-.81-.47-.82-.49-.02-.59.47-.68.86-.3,1.18.29,2.13.8,3.11-1.27.55-2.59.22-3.89.22-.57-5.35-.42-10.58,2.79-15.23.5-.72.92-1.69,2.1-1.55Z"/>
        <path class="cls-1" d="m43.83,112.96c-.47-.69-.24-1.47-.25-2.2-.02-3.95,0-7.9,0-11.84,0-.51-.12-1.05.25-1.51,1.03-.12,1.4.71,1.85,1.34,2.17,3.02,3.27,6.4,3.27,10.12,0,1.34,0,2.68,0,4.02,0,.51.11,1.08-.52,1.35-1.2-.05-2.43.3-3.6-.25.5-.97,1.17-1.89.82-3.09-.11-.4-.23-.87-.73-.83-.43.03-.38.51-.45.84-.14.71.11,1.55-.66,2.05Z"/>
        <path class="cls-17" d="m97.52,77.73c-8.52,0-17.03,0-25.55,0-.51,0-1.06.16-1.5-.26-.17-1.33.89-1.47,1.74-1.74,2.53-.78,5.18-.8,7.78-.88,4.53-.14,9.08-.19,13.58.52,1.04.16,2.08.35,3.02.83.59.3,1.33.59.92,1.52Z"/>
        <path class="cls-30" d="m70.56,83.03c-.84-2.66-.32-3.42,2.31-3.42,7.63,0,15.27,0,22.9,0,2.45,0,2.83.63,1.92,3.1-1.46.75-2.69-.31-4.04-.49-.58-.26-1.17-.48-1.83-.38-.29,0-.57-.05-.86-.11-1.56-.47-3.17-.18-4.75-.26-1.77,0-3.55,0-5.32,0-1.38.05-2.79-.17-4.14.26-.37.08-.74.13-1.12.13-.61-.1-1.19-.01-1.76.22-.54.16-1.07.36-1.64.42-.56.17-1.16.23-1.68.53Z"/>
        <path class="cls-30" d="m53.72,213.19c11.83.04,23.67.08,35.5.1,7.93.01,15.86,0,23.79-.02.81,0,1.63-.06,2.44-.09.3.6.03,1.04-.49,1.27-.86.4-1.13-.63-1.76-.81-.69-.02-1.62-.13-1.54.84.2,2.5-1.43,2.01-2.87,1.92-1.87-.55-3.74-.65-5.61,0-1.04,0-.75-.82-.77-1.36-.04-1.09-.56-1.54-1.62-1.43-.87.53-1.82.74-2.84.67-2.36-.17-4.76.37-7.1-.33-.4-.21-.81-.43-1.29-.35-1.55.99-3.28.54-4.95.64-1.26.08-2.59-.25-3.71.62-.32.18-.66.3-1.04.26-.78-.21.17-1.55-.98-1.52-.79-.07-1.52,0-1.96.79-.44-.06-.85-.3-1.32-.18-1.9.06-3.8-.06-5.7.11-.89.08-1.53-.38-2.26-.71-.39,0-.77.01-1.16.02-.52.26-1.01.61-1.62.59-2.7-.11-5.42.45-8.1-.24-.75-.4-1.49-.77-2.01.31-1.15.39-1.49.02-1.05-1.1Z"/>
        <path class="cls-30" d="m97.52,77.73c-.03-.92-.84-.86-1.39-1.05-2.63-.91-5.38-1.02-8.12-1.18-5.26-.29-10.51-.2-15.69.89-.7.15-1.57.15-1.84,1.08-.53-2.88-.29-3.2,2.43-3.2,7.68,0,15.36,0,23.04.02.65,0,1.64-.37,1.87.43.27.95.66,2.1-.29,3.01Z"/>
        <path class="cls-17" d="m86.63,171.51c0,.7,0,1.4,0,2.09-.01,2.22-.3,2.5-2.53,2.49-2.03-.01-2.28-.27-2.29-2.35,0-2.73,0-5.46,0-8.2,1.04-.76,1.77,0,2.44.58,1.62,1.41,2.35,3.25,2.37,5.38Z"/>
        <path class="cls-30" d="m77.91,181.65c-7.36-.01-14.73-.03-22.09-.04,0-.08,0-.16,0-.24.31-.16.63-.32.94-.48.65-.36,1.35-.22,2.04-.23,1.84-.02,3.7.19,5.52-.31.57-.15,1.15-.07,1.68.24.19.8.82.71,1.39.62.66-.11.79-.68.72-1.21-.17-1.39.52-1.65,1.74-1.62,1.97.05,3.94.04,5.91-.1,1.17-.08,1.64.27,1.53,1.42-.07.73.13,1.38.63,1.92Z"/>
        <path class="cls-17" d="m91.3,81.27c.22.01.44.03.66.04.55.38,1.25-.05,1.8.31,1.31.36,2.62.72,3.93,1.09-.07.11-.14.22-.21.34-2.18.37-4.38.12-6.57.15-5.65.08-11.3.06-16.95-.01-.76,0-1.87.19-1.98-1.14.56-.14,1.12-.28,1.69-.42.55-.37,1.24.07,1.79-.31l.98-.05c1.41-.38,2.87.11,4.27-.28,1.88,0,3.75-.01,5.63-.02,1.63.45,3.32-.12,4.96.31Z"/>
        <path class="cls-31" d="m119.82,2.31c-4.11.52-8.23.36-12.35.39-1.43,0-2.86-.51-4.29,0-.11.03-.22.06-.33.08-3.79.2-7.59.07-11.38.08-7.47.02-14.94.01-22.42,0-.8,0-1.65.16-2.34-.45-4.33.33-8.68.3-13.02.29-1.68,0-3.36.07-5.01-.39.72-.36,1.49-.24,2.24-.24,22.16,0,44.32,0,66.48,0,.81,0,1.64-.13,2.42.24Z"/>
        <path class="cls-17" d="m154.37,129.75c.45.95.8,1.93.93,3.04-.8.14-1.59.26-2.38.41q-2.67.51-3.35-2.23c-.41-1.69-.81-3.39-1.21-5.08-.08-1.57.94-1,1.56-.69,1.97,1.01,3.73,2.28,4.46,4.54Z"/>
        <path class="cls-17" d="m13.77,78.1c-.08-.22-.16-.44-.26-.65-.65-1.39-.4-2.19,1.32-2.07.17.01.35-.03.52-.06q2.84-.49,3.52,2.26c.42,1.69.81,3.39,1.22,5.09.11,1.44-.78,1.02-1.43.68-2.25-1.16-3.95-2.86-4.89-5.25Z"/>
        <path class="cls-20" d="m48.44,114.24c.92-4.19.16-8.17-1.48-12.04-.75-1.78-1.77-3.4-3.12-4.79.66-1.16,4.19-1.97,5.04-1.16.34.32.24.76.24,1.16.01,5.18.03,10.36,0,15.55,0,.5.29,1.27-.69,1.28Z"/>
        <path class="cls-31" d="m10.61,63.44c-1.88.76-3.87,1.27-5.6,2.38-.26.17-.55.44-.88-.02-.65-.9-.2-3.19.82-3.66,4.34-2,8.9-3.13,13.69-3.28-.45,1.27-1.73,1.26-2.68,1.5-2.11.52-3.75,1.72-5.33,3.08Z"/>
        <path class="cls-20" d="m124.6,97.43c-3.19,3.25-4.44,7.33-4.89,11.7-.17,1.68-.01,3.39,0,5.08-.69-.37-.41-1.04-.41-1.56-.02-5.02.04-10.03-.02-15.05-.01-1.25.4-1.71,1.61-1.55,1.35.18,3.03-.57,3.71,1.38Z"/>
        <path class="cls-6" d="m10.61,63.44c-.18-.66-.14-.62.26-1.01,2.18-2.09,5.1-2.54,7.76-3.56.57-.07,1.15-.16,1.72-.21,1.45-.11,2.72,1.21,2.63,2.65-.04.6-.42.61-.83.62-3.91.04-7.73.74-11.54,1.51Z"/>
        <path class="cls-30" d="m43.21,201.93c-.34.08-.69.13-1.01.25-2.28.91-2.25.91-2.53-1.48-.3-2.62-.25-5.21.22-7.82.24-1.36.78-1.48,1.84-1.02.7.16,1.57-.1,1.93.83-.76,2.66-.9,5.34-.34,8.05.08.39.12.81-.11,1.18Z"/>
        <path class="cls-30" d="m125.62,201.99c.92-3.15.82-6.3,0-9.45,2.82-1.46,2.79-1.46,3.27,1.6.36,2.32.33,4.62-.06,6.94-.38,2.27-.36,2.29-2.43,1.29-.26-.13-.52-.25-.78-.38Z"/>
        <path class="cls-30" d="m89.11,181.33c-3.25,0-6.5,0-9.75,0,0-3.59-.27-3.06,3.04-3.1,1.51-.01,3.03.08,4.54-.05,1.63-.14,2.45.35,2.18,2.1-.05.34,0,.7,0,1.05Z"/>
        <path class="cls-6" d="m151.61,149.43c-1.47.46-3,.26-4.5.37-.47.03-.78-.19-.83-.69-.14-.37-.1-.77-.18-1.15-.18-.9-.12-.91,1.08-.85.04,0,.03-.37.2-.51,3.39-.35,6.77-.8,10.11-1.49,1.25-.22.92.52.55,1.05-.86,1.23-2.18,1.85-3.52,2.4-.94.39-1.96.53-2.91.87Z"/>
        <path class="cls-31" d="m131.95,61.29c-.59-.65-.34-1.45-.34-2.18-.02-14.48-.04-28.95.04-43.43,0-1.17-.88-2.36-.02-3.52.65,1.38.78,2.86.78,4.36,0,9.72,0,19.44,0,29.17,0,.29-.06.58-.09.86-.33,1.17-.33,2.35,0,3.52.15.7.15,1.39,0,2.09-.34,1.99-.33,3.99,0,5.98,0,.11,0,.23,0,.34-.46.82.04,1.77-.32,2.6l.04.11-.08.09Z"/>
        <path class="cls-30" d="m100.77,181.24c-3.27.04-6.54.07-9.81.11.1-3.49-.46-3.14,3.18-3.16,1.51,0,3.02.06,4.52-.03,1.24-.08,1.9.24,1.69,1.61-.08.54.14,1.02.42,1.47Z"/>
        <path class="cls-31" d="m151.61,149.43c1.82-1.19,4.05-1.66,5.67-3.19.23-.22,1.39-.54.21-1.13,1.91-.76,3.93-1.26,5.73-2.31.36-.21.75-.28,1.04.16.2.94.26,1.88-.04,2.82-3.89,2.31-8.16,3.26-12.61,3.65Z"/>
        <path class="cls-30" d="m119.99,183.79c-2.23-1.15-4.39-2.5-7.02-2.54.33-.4.75-.79.66-1.36-.28-1.77.8-1.76,2.08-1.77,2.23-.02,3.98,1.06,5.76,2.17.79.49.37.95-.01,1.4-.55.66-1.33,1.15-1.47,2.1Z"/>
        <path class="cls-30" d="m112.32,181.27c-3.52,0-7.05,0-10.57,0,.2-.41.6-.85.56-1.24-.19-1.82.87-1.92,2.24-1.87,1.74.07,3.48.06,5.22,0,1.21-.05,2.1.11,1.84,1.65-.11.64.22,1.11.72,1.48Z"/>
        <path class="cls-30" d="m55.81,181.37c0,.08,0,.16,0,.24-2.77.13-5.18,1.18-7.34,2.86.2-1.02-.44-1.63-1.09-2.23-.71-.65-.83-1.15.12-1.74,1.8-1.13,3.69-1.93,5.85-2.05,1.01-.05,1.57.2,1.45,1.34-.08.76.14,1.39,1.01,1.58Z"/>
        <path class="cls-30" d="m86.63,171.51c-.47-1.95-1.32-3.71-2.84-5.06-.54-.48-1.09-1.1-1.97-.91,0-.52-.02-1.05-.01-1.57.02-2.17.45-2.62,2.49-2.6,1.88.02,2.33.52,2.34,2.62,0,2.51,0,5.01,0,7.52Z"/>
        <path class="cls-30" d="m113.2,213.65c.71-.35,1.87,1.5,2.25-.46,1.56-.72,3.14-1.41,4.57-2.38.14.81.71,1.35,1.29,1.83,1.08.9.7,1.51-.27,2.12-1.81,1.15-3.72,1.88-5.93,1.75-.98-.06-1.59-.23-1.47-1.36.05-.54-.13-1.04-.43-1.49Z"/>
        <path class="cls-30" d="m53.72,213.19c-.07.77.26,1.15,1.05,1.1.05,2.3,0,2.37-2.3,2.13-2.02-.21-3.77-1.11-5.42-2.24-.69-.47-.56-.85-.06-1.38.66-.7,1.6-1.24,1.53-2.41,1.44,1.48,3.41,1.98,5.21,2.79Z"/>
        <path class="cls-17" d="m32.65,102.38c-.58-.08-.84-.35-.6-.95.21-.54.38-1.1.64-1.62.44-.91.1-2.47,1.04-2.72.82-.22,1.92.62,2.9,1,1.25.49,2.49,1,3.73,1.5.56,1.11-.37,1.48-1.03,1.83-2.09,1.09-4.28,1.79-6.67.97Z"/>
        <path class="cls-30" d="m127.73,108.67c-.69-.11-.98-.52-.98-1.21.01-1.34.02-2.67-.01-4.01-.02-1.05.39-1.16,1.28-.77,2.7,1.2,5.42,2.35,8.13,3.51-.07.1-.14.24-.23.25-2.84.35-5.45,1.53-8.19,2.23Z"/>
        <path class="cls-17" d="m127.73,108.67c2.5-1.88,5.32-2.64,8.42-2.47.71,1.17-.37,2-.61,2.97-.62,2.5-.69,2.49-3.08,1.49-1.58-.66-3.15-1.33-4.73-1.99Z"/>
        <path class="cls-30" d="m32.65,102.38c2.33-.04,4.56-.49,6.62-1.62.48-.26,1.13-.4,1.07-1.17,1.01.22,1.41.85,1.36,1.88-.05,1.16-.03,2.32,0,3.48.02.97-.32,1.25-1.25.83-2.59-1.16-5.19-2.27-7.79-3.39Z"/>
        <path class="cls-30" d="m90.86,213.96c1.72-.74,3.52-.27,5.28-.36,1.55-.07,3.1,0,4.66.01-.1.14-.31.29-.29.42.25,2.66-1.5,2.53-3.31,2.44-1.51-.08-3.04-.09-4.55,0-1.3.08-1.88-.32-1.61-1.68.05-.26-.11-.56-.17-.85Z"/>
        <path class="cls-30" d="m43.57,203.8c.9,2.21,2.21,4.15,3.85,5.88-.32.26-.66.49-.94.77-1.84,1.8-1.85,1.81-3.26-.3-.42-.63-.81-1.29-1.14-1.97-1.86-3.74-1.73-2.77,1.5-4.38Z"/>
        <path class="cls-30" d="m120.72,210.07c1.92-1.74,3.46-3.73,4.19-6.27.05.02.11.04.16.07q2.89,1.74,1.26,4.87c-.24.46-.51.91-.8,1.35-1.43,2.16-1.45,2.17-3.38.48-.44-.38-.88-.53-1.42-.51Z"/>
        <path class="cls-30" d="m124.98,190.46c-1.11-2.21-2.5-4.23-4.28-5.97,1.03.08,1.57-.67,2.12-1.33.68-.82,1.14-.7,1.74.12.96,1.33,1.79,2.71,2.53,4.17.69,1.35.54,2.15-.97,2.56-.39.11-.76.29-1.13.44Z"/>
        <path class="cls-30" d="m56.78,213.98c3.22-.69,6.47-.33,9.71-.34-.1.21-.32.43-.29.62.3,2.5-1.32,2.34-2.99,2.24-1.21-.08-2.43-.01-3.65-.01q-2.59,0-2.78-2.5Z"/>
        <path class="cls-1" d="m12.65,54.23c2.76-.51,5.07.45,7.58,2.38-4.14.34-7.81.9-11.42,1.84-.48-1.79.94-2.49,1.99-3.39.52-.45,1.29-.43,1.85-.84Z"/>
        <path class="cls-30" d="m48.09,184.82c-1.94,1.61-3.44,3.53-4.23,5.97-1.05.2-1.61-.74-2.43-1.06-.38-.46-.36-.91-.12-1.45.75-1.64,1.65-3.18,2.77-4.6.66-.84,1.19-.97,1.87-.04.52.7,1.09,1.39,2.14,1.19Z"/>
        <path class="cls-1" d="m155.79,154.25c-2.94.38-5.2-.33-7.31-2.43,3.89-.29,7.56-.92,11.19-1.8.27,1.94-1.39,2.57-2.47,3.58-.39.37-.97.35-1.41.64Z"/>
        <path class="cls-30" d="m65.99,180.6c-.45,1.02-1.45.37-2.07.46-2.36.36-4.8.61-7.16-.17q.25-2.44,2.71-2.43c1.52,0,3.04.11,4.54-.04,1.79-.18,2.32.54,1.98,2.18Z"/>
        <path class="cls-30" d="m80.37,214.64c.41-.78.98-1.11,1.92-1.08,2.42.09,4.84.04,7.27.05-.12.19-.38.4-.35.58.28,2.36-1.17,2.4-2.9,2.29-1.97-.12-3.96-.06-5.94-.07-.53-.59-.4-1.18,0-1.78Z"/>
        <path class="cls-30" d="m67.65,213.62c2.84,0,5.68,0,8.52-.01.77.63.2,1.84,1.05,2.43-.45.7-1.16.37-1.76.4-.99.05-1.99.02-2.98.02-2.16-.01-4.77.74-4.83-2.84Z"/>
        <path class="cls-30" d="m13.77,78.1c1.51,1.85,2.98,3.75,5.2,4.84.48.24.95.65,1.12-.28.65,1.11.33,1.72-.93,1.93-.45.07-.89.27-1.32.45q-2.17.87-2.72-1.34c-.46-1.86-.9-3.73-1.34-5.6Z"/>
        <path class="cls-30" d="m154.37,129.75c-1.42-1.49-2.72-3.12-4.61-4.06-.46-.23-1.1-1-1.4.2-.65-1.06-.4-1.74.85-2.01.23-.05.45-.12.67-.19,2.87-1,2.92-1.01,3.66,1.98.33,1.34.93,2.65.84,4.08Z"/>
        <path class="cls-20" d="m7.78,66.64c.6,3.84,3.53,6.48,7.37,6.64-3.12,1.09-8.12-1.29-9.83-4.39-.3-.55-.2-.85.3-1.12.72-.38,1.44-.75,2.16-1.12Z"/>
        <path class="cls-20" d="m160.75,141.7c-.96-3.01-2.73-5.32-5.65-6.67,3,.02,5.37,1.33,7.27,3.57,1.27,1.51,1.21,1.78-.49,2.66-.36.19-.75.3-1.13.44Z"/>
        <path class="cls-20" d="m155.79,154.25c1.36-1.35,3.14-2.3,3.87-4.23,1.18-.45,2.37-.9,3.6-1.37-.29,2.73-4.02,5.48-7.47,5.6Z"/>
        <path class="cls-20" d="m12.65,54.23c-1.4,1.3-3.28,2.16-3.83,4.23-1.23.45-2.45.89-3.77,1.37.72-3,4.1-5.43,7.6-5.6Z"/>
        <path class="cls-26" d="m149.45,136.73c.73.05,1.54-.16,2.09.53.55.69,1.11,1.47.44,2.33-.74.95-1.75,1.28-2.93.78-1.2-.51-1.36-1.43-.98-2.55.35-.5.79-.88,1.37-1.09Z"/>
        <path class="cls-17" d="m43.21,201.93c-1.28-2.55-1.09-7.81.35-9.36-.03-.45-.17-.96.5-1.1.4-.35.81-.7,1.21-1.05.52.6.21,1.21,0,1.79-1.12,2.95-1.37,5.95-.54,9.02.16.6.36,1.24-.13,1.82-.21.11-.41.22-.62.34.03-.64.07-1.28-.76-1.46Z"/>
        <path class="cls-26" d="m18.76,71.88c-.22-.06-.45-.11-.67-.17-1.13-.26-1.99-.87-1.86-2.12.1-.93.8-1.5,1.78-1.62,1.24-.14,2.18.18,2.48,1.56.05.22.18.43.27.64-.49.78-1.15,1.36-2,1.71Z"/>
        <path class="cls-17" d="m71.97,82.05c1.14,1.49,2.84.9,4.22.91,5.94.04,11.88.3,17.82-.15,1.14-.09,2.31.15,3.47.23-.34.33-.77.2-1.16.2-8.08,0-16.16,0-24.23,0-.52,0-1.05.08-1.53-.22.07-.91.71-.99,1.42-.98Z"/>
        <path class="cls-26" d="m123.6,113.99c-1.2,0-1.35-.95-1.44-1.79-.12-1.03-.25-2.19.71-2.89.85-.62,1.57-.26,1.68.83.09.91.05,1.84.06,2.77-.08.6-.41.96-1.01,1.08Z"/>
        <path class="cls-26" d="m43.83,112.96c.02-.88.04-1.75.06-2.62.02-.55.09-1.08.75-1.22.51-.1.91.16,1.23.52,1.05,1.18.46,3.66-1.03,4.35-.61-.07-.9-.46-1.01-1.02Z"/>
        <path class="cls-30" d="m103.18,216.41c-.17-.42-.46-.8-.25-1.34,1.19,1.16,2.66.41,3.99.63.67.11,1.57-.38,1.87.71-1.87,0-3.74,0-5.61,0Z"/>
        <path class="cls-23" d="m44.06,191.48c-.19.36.1.93-.5,1.1-.66-.1-1.33-.19-1.83-.71,1.96-1-.05-1.44-.3-2.13.81.35,1.62.71,2.43,1.06.07.23.13.46.2.69Z"/>
        <path class="cls-6" d="m147.39,146.6v1.18c-.56.08-.25-.65-.82-.64-.44.56.36,1.42-.28,1.97-.1-.13-.24-.25-.31-.39-.99-2.11-.93-2.2,1.41-2.12Z"/>
        <path class="cls-31" d="m132.32,58.14c-.59-1.99-.6-3.99,0-5.98.16,1.99.16,3.99,0,5.98Z"/>
        <path class="cls-30" d="m77.22,216.04c-1.66-.24-.55-1.69-1.05-2.43.51.02.68.37.76.8.1.55.5,1.03.3,1.63Z"/>
        <path class="cls-30" d="m78.89,213.62c1.41-.21,1.21.52.79,1.37.39.46.37.92,0,1.38-.74-.78.11-2.01-.78-2.75Z"/>
        <path class="cls-31" d="m132.32,50.07c-.59-1.17-.59-2.35,0-3.52.16,1.17.16,2.35,0,3.52Z"/>
        <path class="cls-30" d="m79.67,216.37c0-.46,0-.92,0-1.38.23-.12.46-.23.69-.35,0,.59,0,1.18,0,1.77-.23-.02-.47-.03-.7-.05Z"/>
        <path class="cls-31" d="m164.22,145.78c.01-.94.03-1.88.04-2.82.32.94.63,1.89-.04,2.82Z"/>
        <path class="cls-31" d="m131.99,61.09c.06-.87-.34-1.8.32-2.6.05.89.11,1.78-.32,2.6Z"/>
        <path class="cls-6" d="m69.9,6.91c5.13,0,9.23-.19,13.3.04,6.24.36,12.49.09,18.72.36,6.52.29,13.05.29,19.56.73,3.71.25,6.04,2.89,7.69,6.12,1.68,3.27,1.11,6.77.89,10.16-.16,2.37-.35,4.77-.47,7.13-.28,5.36-1.1,10.62-2.01,15.89-.71,4.11-1.95,8.03-3.66,11.82-.67,1.48-1.72,2.4-3.31,2.85-6.99,1.98-13.99,3.94-21.14,5.27-4.8.89-9.54,2.34-14.47,2.05-4.23-.25-8.44-.85-12.64-1.39-5.01-.64-10.03-1.29-15.01-2.11-3.04-.5-6.04-1.22-9.05-1.88-4.09-.9-6.81-5.05-7.18-8.57-.55-5.26-1.18-10.51-1.52-15.79-.26-4.06-.32-8.13-.57-12.19-.2-3.3.2-6.65-.11-9.94-.29-3.02,1.09-4.86,3.32-6.36,3.33-2.25,6.98-3.52,11.04-3.87,5.89-.5,11.78-.17,16.64-.31Z"/>
        <path class="cls-31" d="m63.88,3.75c.35-.41.85-.43,1.28-.33.74.16,1.12-.27,1.52-.72.43-.28.91-.17,1.36-.17,11.25,0,22.51,0,33.76,0,.46,0,.94-.11,1.36.17h0c0,.35,0,.7,0,1.05-.43.27-.91.17-1.36.17-12.19,0-24.37,0-36.56,0-.46,0-.94.11-1.36-.17Z"/>
        <path class="cls-31" d="m37.92,58.14h-.17s-.17,0-.17,0c-.33-.6-.17-1.26-.17-1.89-.01-10.73,0-21.46,0-32.19,0-3.61.04-7.22-.18-10.83.1-.51.19-1.01.69-1.56.5,1.55-.23,2.97.02,4.37.28.43.17.91.17,1.36,0,13.13,0,26.25,0,39.38,0,.46.11.94-.17,1.36Z"/>
        <path class="cls-31" d="m37.22,13.22c.59.65.34,1.45.34,2.18.02,14.24.01,28.49.01,42.73-.09.79.18,1.6-.35,2.78V16.03c-.28-.94-.28-1.87,0-2.81h0Z"/>
        <path class="cls-31" d="m37.92,58.14c0-14.04,0-28.07,0-42.11.44.42.35.97.35,1.48,0,13.33,0,26.66,0,39.99,0,.23,0,.47,0,.7,0,.05-.01.13-.05.15-.27.16-.23-.1-.3-.22Z"/>
        <path class="cls-31" d="m36.43,16.48v41.21h-.17V16.48h.17Z"/>
        <path class="cls-31" d="m63.88,3.75c13.1,0,26.19,0,39.29,0-.53.52-1.21.34-1.83.34-11.88,0-23.76,0-35.64,0-.62,0-1.3.18-1.83-.34Z"/>
        <path class="cls-31" d="m103.18,2.7c-12.16,0-24.33,0-36.49,0,0-.1,0-.19.02-.29,11.78-.02,23.56-.03,35.34-.05.41,0,.82,0,1.13.34Z"/>
        <path class="cls-31" d="m37.22,13.22c0,.94,0,1.87,0,2.81-.53-.94-.53-1.87,0-2.81Z"/>
        <path class="cls-6" d="m69.42,89.02c2.22,0,4.44.07,6.66-.01,11.79-.45,23.58-.31,35.37-.34,3.17,0,2.44.01,3.61,2.73,1.08,2.51.98,5.27,1.04,7.92.16,6.95.06,13.91.05,20.86,0,2.1-3.13,4.63-5.17,4.19-.76-.16-.78-.78-.78-1.37-.03-5.55-1.51-10.82-3.7-15.81-2.3-5.24-5.82-9.73-11.11-12.29-4.41-2.14-9.25-2.68-14.11-2.3-5.01.4-9.47,2.38-13.32,5.56-3.3,2.73-6.01,5.95-7.02,10.31-.31,1.36-.88,2.65-1.33,3.97-.06.16-.15.42-.25.43-1.82.31-3.44,1.44-5.34,1.33-.72-.04-.64-.72-.65-1.23-.03-3.15-.06-6.3.39-9.43.6-4.27.97-8.55.99-12.86,0-1.3.41-1.72,1.71-1.7,4.32.07,8.65.03,12.97.02Z"/>
        <path class="cls-6" d="m83.1,156.75c-2.19-.06-4.33.22-6.52-.69-2.31-.95-3.76-2.75-5.27-4.44-4.1-4.59-8.29-9.12-11.82-14.19-1.33-1.91-2.64-3.82-3.66-5.92-.44-.91-.38-1.45.8-1.45.29,0,.58-.08.86-.13,2.98-.61,3.37-.51,4.82,1.99,3.17,5.47,7.65,9.78,12.98,12.88,5.05,2.93,10.68,3.4,16.28.89,4.69-2.11,8.28-5.49,11.57-9.33,1.75-2.04,3.33-4.18,4.94-6.31,1.16-1.54,3.07-2.05,5-2.04,1.26,0,.89.8.71,1.6-.76,3.42-2.95,5.98-4.95,8.69-3.67,4.96-7.66,9.64-11.97,14.06-3,3.08-6.67,4.52-10.96,4.41-.93-.02-1.87,0-2.81,0Z"/>
        <path class="cls-23" d="m84.07,143.15c-12.96-.16-23.41-10.72-23.3-23.58.1-12.98,10.89-23.64,23.69-23.42,13.21.23,23.5,10.77,23.33,23.9-.17,12.93-10.77,23.26-23.72,23.1Z"/>
        <path class="cls-6" d="m59.51,123.35c.46,1-.29,1.32-1.22,1.64-3.87,1.36-3.87,1.37-4.8-2.43-.68-2.76-.04-3.71,3.12-4.62,2.56-.74,2.68-.64,2.71,1.95.01,1.09.11,2.18.18,3.47Z"/>
        <path class="cls-31" d="m113.22,85.79h-57.63c0-.06,0-.11,0-.17h57.56c.02.06.05.11.07.17Z"/>
        <path class="cls-26" d="m29.49,98.51c.05.76-.01,1.46-.31,2.11-.89,1.96-2.87,2.29-4.19.71-1.06-1.27-1.19-4.1-.24-5.41,1.36-1.88,3.35-1.67,4.39.43.35.72.38,1.45.35,2.16Z"/>
        <path class="cls-26" d="m144.22,110.04c.26,1.63-.52,2.87-1.91,3.72-.71.43-1.56.21-2.12-.33-1.13-1.09-1.76-2.42-1.3-4.06.08-.28.04-.58.11-.86.34-1.41,1.21-2.3,2.69-2.25,1.52.05,2.17,1.17,2.51,2.48.1.38.01.81.01,1.3Z"/>
        <path class="cls-23" d="m44.59,203.06c-1.55-4.31-1.27-8.51.67-12.63,3.45-5.61,8.47-7.82,15.02-7.77,17.05.13,34.1-.05,51.15-.11,6.56-.02,12.91,6.12,13.5,13.09.18,2.16.09,4.3-.65,6.38-1.6,4.72-4.69,7.97-9.43,9.61-1.17.41-2.36.56-3.61.56-17.05,0-34.09-.12-51.14.07-7.21.08-12.35-2.72-15.51-9.18Z"/>
        <path class="cls-17" d="m91.3,81.27c-1.65-.1-3.34.38-4.96-.31,1.66,0,3.33-.24,4.96.31Z"/>
        <path class="cls-17" d="m80.71,80.98c-1.39.65-2.85.22-4.27.28,1.4-.52,2.84-.28,4.27-.28Z"/>
        <path class="cls-17" d="m93.76,81.62c-.62,0-1.27.21-1.8-.31.62-.01,1.25-.09,1.8.31Z"/>
        <path class="cls-17" d="m75.45,81.32c-.53.52-1.18.3-1.79.31.55-.4,1.17-.33,1.79-.31Z"/>
        <path class="cls-17" d="m78.35,81.87h10.32c-3.41.39-6.89-.31-10.29.64-.01-.21-.02-.43-.03-.64Z"/>
        <path class="cls-32" d="m55.79,94.72c.1-.88.26-2.15.37-3.43.08-.87.55-1.26,1.37-1.22.78.04,1.71-.36,2.29.44.64.9-.2,1.52-.62,2.16-.66.99-1.13,2.04-1.25,3.22-.09.85-.18,1.79-1.28,1.7-1.03-.08-.9-1.03-.89-1.79,0-.23,0-.47,0-1.09Z"/>
        <path class="cls-32" d="m55.38,101.9c.08-.63.05-1.3.28-1.87.23-.56.84-.52,1.38-.36.57.17,1.04.6.78,1.13-.46.95.42,2.34-.92,2.93-.44.19-1.16.23-1.41-.3-.2-.42-.04-1.01-.04-1.52-.02,0-.05,0-.07,0Z"/>
        <path class="cls-30" d="m105.77,119.75c.29,11.3-9.41,21.21-21.04,21.49-11.5.28-21.63-9.28-21.9-20.66-.28-12.03,8.9-22.02,20.45-22.42,12.16-.42,22.63,9.18,22.49,21.59Z"/>
        <path class="cls-17" d="m84.68,210.18c-8.82,0-17.64,0-26.46,0-6.96,0-12.57-5.6-12.64-12.57-.06-7.01,5.36-12.8,12.33-12.85,17.93-.14,35.87-.19,53.8-.23,4.8-.01,9.68,4.42,11,9.81,1.47,5.97-1.7,12.45-7.32,14.97-1.24.55-2.51.85-3.9.84-8.94-.03-17.88-.02-26.81-.02,0,.02,0,.03,0,.05Z"/>
        <path class="cls-23" d="m84.13,139.62c-11.05-.01-19.91-8.9-19.9-19.97.01-11.03,9.16-20.14,20.12-20.04,10.99.1,19.92,9.12,19.89,20.08-.03,11.15-8.9,19.94-20.11,19.93Z"/>
        <path class="cls-13" d="m67.05,205.88c-2.61,1.38-5.28,2.47-8.35,1.84-4.21-.86-7.06-3.3-8.27-7.4-1.21-4.11-.18-7.8,2.98-10.68,3.15-2.88,6.88-3.51,10.9-2.04.82.3,1.59.71,2.39,1.08,6.47,4.05,6.64,12.55.35,17.22Z"/>
        <path class="cls-23" d="m90.88,205.84c-5.37,2.9-10,2.69-13.62-.71-2.96-2.78-4.12-6.21-3.16-10.18.95-3.96,3.5-6.51,7.38-7.71.33-.1.66-.22.99-.33,1.41-.52,2.8-.57,4.19.1l-.04-.03c.68.32,1.65-.11,2.11.8l.66.24c.5.2,1.1.09,1.52.53.75,1.21,2.11,1.83,2.87,3.05,2.65,4.25,2.27,11.12-2.9,14.25Z"/>
        <path class="cls-13" d="m114.01,206.15c-3.93,2.1-7.88,2.53-11.79.02-4.55-2.92-6.09-8.77-3.64-13.58,2.42-4.76,7.93-6.94,12.95-5.09.87.32,1.71.75,2.56,1.13,5.21,2.71,6.04,9.61,3.65,13.98-.87,1.6-2.24,2.62-3.73,3.54Z"/>
        <path class="cls-30" d="m114.01,206.15c2.21-2.07,4.05-4.3,4.35-7.53.36-3.86-.9-6.97-3.84-9.46-.17-.15-.29-.35-.43-.53,3.72,1.21,6.35,5.01,6.19,8.95-.16,3.97-2.82,7.61-6.27,8.56Z"/>
        <path class="cls-30" d="m67.05,205.88c.21-.27.39-.57.63-.81,4.74-4.89,4.46-11.53-.69-15.98-.12-.11-.2-.28-.29-.42,3.48,1.04,5.98,4.57,6.03,8.51.04,4.14-2.2,7.58-5.68,8.71Z"/>
        <path class="cls-30" d="m90.88,205.84c1.99-2.15,3.68-4.43,3.92-7.53.31-4.01-1.44-7.04-4.27-9.62.48-.42.77-.08,1.07.25,5.23,3.21,6.03,9.2,3.62,13.15-1.03,1.68-2.25,3.25-4.34,3.75Z"/>
        <path class="cls-17" d="m86.66,187.01c-1.4-.03-2.79-.07-4.19-.1-1.01-.46-2.08-.71-3.19-.68-4.78.15-9.54-.22-14.31-.37-.22,0-.44-.06-.65-.23,4.29.06,8.57-.38,12.86.13,2.42.29,4.86.32,7.3.45.82.04,1.66-.04,2.18.79Z"/>
        <path class="cls-17" d="m102.87,186.56c-5.35.58-10.68.07-16-.62,5.32.62,10.67.11,16,.62Z"/>
        <path class="cls-17" d="m81.85,185.24h3.95c-1.18,0-2.36.83-3.95,0Z"/>
        <path class="cls-17" d="m91.6,188.95c-.36-.08-.71-.17-1.07-.25-.38-.23-.76-.45-1.14-.68.97-.23,1.9-.38,2.21.94Z"/>
        <path class="cls-17" d="m88.73,187.78c-.7-.27-1.4-.53-2.11-.8.58-.02,1.15-.05,1.73-.04.68.01.52.44.38.84Z"/>
        <path class="cls-3" d="m102.25,119.74c-.03,9.88-8.12,17.98-17.98,18-9.94.02-18.03-8.12-18.01-18.11.02-9.99,8.1-18.01,18.13-17.96,9.86.04,17.9,8.18,17.87,18.08Z"/>
        <path class="cls-30" d="m60.43,188.93c4.68-.03,8.61,3.76,8.65,8.33.04,4.69-3.88,8.59-8.62,8.6-4.63,0-8.46-3.81-8.5-8.48-.04-4.66,3.73-8.42,8.47-8.45Z"/>
        <path class="cls-30" d="m84.42,188.93c4.73.04,8.48,3.84,8.38,8.51-.1,4.84-3.87,8.5-8.68,8.43-4.62-.07-8.38-3.98-8.32-8.65.06-4.68,3.86-8.34,8.62-8.29Z"/>
        <path class="cls-30" d="m107.79,205.87c-4.59-.04-8.54-4.07-8.42-8.6.12-4.69,4.16-8.57,8.8-8.45,4.51.12,8.33,4.05,8.31,8.54-.02,4.72-3.92,8.54-8.68,8.5Z"/>
        <path class="cls-15" d="m75.11,128.94c0,.58.16,1.63-.95,2.05-1.1.42-1.68-.43-2.3-1.15-1.46-1.69-2.39-3.57-2.37-5.85,0-.81.14-1.54.98-1.88.8-.32,1.51,0,2.08.56,1.64,1.62,2.6,3.56,2.57,6.27Z"/>
        <path class="cls-21" d="m77.93,133.12c-.03.78-.11,1.5-.99,1.42-1.2-.11-2.08-.7-2.16-2.05-.05-.83.29-1.44,1.19-1.29,1.1.18,1.96.73,1.96,1.93Z"/>
        <path class="cls-24" d="m60.44,193.6c2.06-.02,3.8,1.69,3.79,3.74,0,2.01-1.63,3.7-3.6,3.76-2.14.07-3.79-1.51-3.83-3.65-.04-2.15,1.55-3.83,3.64-3.85Z"/>
        <path class="cls-10" d="m88.01,197.47c-.04,1.98-1.96,3.76-3.95,3.67-1.91-.09-3.69-1.94-3.64-3.8.05-2.05,1.83-3.78,3.86-3.74,2.04.04,3.77,1.84,3.73,3.87Z"/>
        <path class="cls-25" d="m104.21,197.4c-.04-2.07,1.62-3.76,3.73-3.8,1.93-.04,3.64,1.65,3.69,3.65.06,2.15-1.5,3.81-3.63,3.86-2.13.05-3.76-1.54-3.79-3.7Z"/>
        <path class="cls-17" d="m60.48,199.15c-1.06-.17-1.78-.76-1.74-1.83.04-1.04.7-1.71,1.83-1.66,1.04.04,1.59.67,1.62,1.68.03,1.13-.68,1.64-1.71,1.81Z"/>
        <path class="cls-17" d="m84.19,199.15c-1.01-.21-1.75-.73-1.7-1.85.04-.99.63-1.62,1.66-1.65,1.12-.03,1.76.61,1.79,1.68.03,1.11-.73,1.62-1.76,1.81Z"/>
        <path class="cls-17" d="m109.69,197.34c-.15,1.12-.75,1.82-1.82,1.77-1.05-.05-1.71-.75-1.64-1.85.06-.99.65-1.6,1.69-1.6,1.14,0,1.62.71,1.77,1.68Z"/>
        <path class="cls-16" d="m103.49,41.79c-1.16-.01-1.01-1.59-1.02-2.57-.01-.94-.06-2.52.9-2.51"/>
        <path class="cls-29" d="m62.15,38.5c.13-.93-.11-2.49.92-2.51,1.04-.02.93,1.53.92,2.48"/>
      </g>
      <g id="Vizier">
        <path class="cls-33" d="m84.9,65.35c-.18,0-.36,0-.54,0-19.82-.21-37.95-14.31-43.12-17.8-.28-.19-2.03-1.37-3.38-2.72-.95-.95-1.53-2.25-1.53-3.69v-19.11c0-2.88,2.34-5.22,5.22-5.22l41.87,6.69"/>
        <path class="cls-34" d="m84.9,64.22c-.18,0-.37,0-.56,0-19.38-.33-36.76-13.51-41.4-17.01-.27-.21-3-1.78-4.36-3.14-.95-.95-1.53-2.25-1.53-3.69v-17.51c0-2.88,2.34-5.22,5.22-5.22l41.15,6.69"/>
        <path class="cls-33" d="m83.43,65.35c.18,0,.36,0,.54,0,19.82-.21,37.95-14.31,43.12-17.8.28-.19,2.03-1.37,3.38-2.72.95-.95,1.53-2.25,1.53-3.69v-19.11c0-2.88-2.34-5.22-5.22-5.22l-43.34,6.69"/>
        <path class="cls-34" d="m83.43,64.22c.18,0,.37,0,.56,0,19.38-.33,36.76-13.51,41.4-17.01.27-.21,3-1.78,4.36-3.14.95-.95,1.53-2.25,1.53-3.69v-17.51c0-2.88-2.34-5.22-5.22-5.22l-43.06,6.62"/>
      </g>
    </g>
    <path class="cls-32" d="m58.33,11.38c-1.05,0-1.99.06-2.92-.02-.98-.08-1.36-.75-1.4-1.69-.04-.86.16-1.52,1.13-1.64,6.12-.75,12.24-1.69,18.43-.91.44.06,1.1-.08,1.22.46.17.7-.6.77-1.02.95-3.41,1.48-7.07,1.92-10.69,2.45-1.61.24-3.22.57-4.75.39Z"/>
    <path class="cls-32" d="m48.94,12.46c-.91-.07-2.1-.09-2.25-1.6-.11-1.08,1.28-2.19,2.74-2.13,1.15.05,2.25.45,2.43,1.79.13.96-1.29,1.91-2.92,1.93Z"/>
    <circle class="cls-5" cx="103.49" cy="39.25" r="6"/>
    <circle class="cls-12" cx="100.65" cy="35.69" r="1.5"/>
    <circle class="cls-5" cx="66.69" cy="39.25" r="6"/>
    <circle class="cls-12" cx="63.68" cy="35.69" r="1.38"/>
    <path class="cls-5" d="m77.56,28.31c0,1.52-5.9,0-11.91,0s-9.83,1.52-9.83,0,4.53-4.03,10.54-4.03,11.2,2.51,11.2,4.03Z"/>
    <path class="cls-5" d="m115.1,28.31c0,1.52-5.9,0-11.91,0s-9.83,1.52-9.83,0,4.53-4.03,10.54-4.03,11.2,2.51,11.2,4.03Z"/>
    <path class="cls-18" d="m48.45,21.38c.92.53-1.63,2.86-3.29,5.77s-1.79,5.29-2.72,4.76-1.2-3.6.46-6.51,4.62-4.56,5.55-4.03Z"/>
    <path class="cls-5" d="m95.37,55.35c0-1.52-5.9,0-11.91,0s-9.83-1.52-9.83,0,4.53,4.03,10.54,4.03,11.2-2.51,11.2-4.03Z"/>
    <g id="Logo_Lucrato" data-name="Logo Lucrato">
      <g class="cls-35">
        <path class="cls-19" d="m79.71,131.06c-1.04-.42-1.19-1.47-1.56-2.32-1.32-3.06-2.59-6.15-3.87-9.22-.57-1.38,0-2.87,1.33-3.32,1.16-.4,2.61.1,3.12,1.64.51,1.56,1.25,3.03,1.64,4.63.15.15.26.3.22.53-.32,2.24-.07,4.49-.15,6.73-.01.3,0,.61-.04.91-.07.4-.28.58-.69.42Z"/>
        <path class="cls-4" d="m79.71,131.06c.55.02.5-.36.5-.72,0-2.15.04-4.29-.03-6.44-.02-.51.44-.92.19-1.43.3.02.26-.21.32-.4.54-1.59.97-3.22,1.64-4.77.26-.6.71-.95,1.35-1.06.57-.12.49.31.47.61-.13,2.16-.03,4.32-.06,6.47,0,.53-.02,1.07.14,1.59.07.23.06.45-.07.66-.4,1.59-1.05,3.09-1.67,4.6-.37.9-1.3,1.31-2.8.89Z"/>
        <path class="cls-31" d="m84.18,125.57c-.59-2.93-.31-5.88-.19-8.83.01-.26,0-.46-.3-.5,1.19-.41,2.33,0,2.84,1.09.39.81.67,1.67.85,2.56-.22.55-.24,1.12-.24,1.7,0,2.6.02,5.2,0,7.81,0,.41.14.97-.55,1.05-.57-.5-.58-1.26-.87-1.89-.41-.91-.74-1.87-1.06-2.83-.11-.33-.2-.45-.48-.16Z"/>
        <path class="cls-11" d="m76.15,114.27c-1.72,0-2.81-1.08-2.81-2.77,0-1.62,1.17-2.73,2.86-2.73,1.59,0,2.79,1.18,2.79,2.74,0,1.59-1.2,2.76-2.84,2.76Z"/>
        <path class="cls-9" d="m88.71,121.72c.47-1.32.93-2.64,1.41-3.95.1-.27.2-.56.44-.76.37-.15.44.13.51.37.07.27.05.55.06.83.03,2.92-.05,5.83.04,8.75,0,.3-.03.61-.13.9-.45.99-.59,2.14-1.48,2.91-.15.13-.27.3-.5.29-.32-.33-.24-.76-.24-1.15,0-2.2,0-4.4,0-6.6,0-.53.01-1.06-.1-1.59Z"/>
        <path class="cls-22" d="m88.71,121.72c.36.26.34.65.34,1.03,0,2.77,0,5.54,0,8.31-.94.28-1.82.31-2.47-.61.43-.19.33-.58.33-.93,0-2.97,0-5.94,0-8.9,0-.36-.02-.7.47-.72.43.81.57,1.72.93,2.57.28-.19.18-.56.4-.75Z"/>
        <path class="cls-28" d="m91.04,127.86c-.33-3.34-.08-6.69-.17-10.04,0-.29.19-.7-.31-.81.26-.38.58-.69,1.07-.76,1.04-.14,1.17-.06,1.16.97-.01,2.23.09,4.45-.07,6.68-.51,1.34-1.04,2.68-1.68,3.97Z"/>
        <path class="cls-14" d="m91.78,108.92c1.28-.43,2.27-.13,3.2.99.56.68.67,2.2.21,3.01-.59,1.03-1.79,1.64-2.92,1.48-.06,0-.12-.08-.18-.12.23-.41.25-.86.25-1.32,0-.93-.02-1.87,0-2.8.02-.52-.09-.95-.56-1.23Z"/>
        <path class="cls-2" d="m83.52,108.92c1.23-.38,2.26-.13,3.12.87.77.91.75,1.93.39,2.93-.39,1.11-1.39,1.52-2.49,1.7-.19.03-.41.05-.57-.13.21-.27.29-.56.28-.91-.02-1.03-.04-2.06,0-3.09.03-.64-.1-1.13-.74-1.37Z"/>
        <path class="cls-7" d="m83.52,108.92c.74-.1,1.02.16.97.96-.07,1.31-.07,2.64,0,3.95.03.53-.24.44-.52.46-1.08-.05-2.11-.96-2.24-2.07-.17-1.43.14-2.82,1.78-3.3Z"/>
        <path class="cls-27" d="m91.78,108.92c.56-.06.81.11.79.74-.05,1.31-.02,2.63-.01,3.95,0,.34.04.69-.47.66-1.49-.27-2.15-1.4-2.26-2.73-.09-1.16.86-2.38,1.95-2.63Z"/>
        <path class="cls-6" d="m92.72,123.89c-.2-.3-.16-.63-.16-.96,0-1.9-.04-3.81.02-5.71.02-.74-.15-1.11-.95-.98.97-.36,1.87-.17,2.57.54.71.72.87,1.63.46,2.59-.64,1.51-1.29,3.01-1.94,4.51Z"/>
      </g>
    </g>
  </g>
</svg>