<?xml version="1.0" encoding="UTF-8"?>
<svg id="Layer_2" data-name="Layer 2" xmlns="http://www.w3.org/2000/svg" xmlns:xlink="http://www.w3.org/1999/xlink" viewBox="0 0 98.16 65.14">
  <defs>
    <style>
      .cls-1 {
        fill: #707070;
      }

      .cls-1, .cls-2, .cls-3, .cls-4, .cls-5, .cls-6, .cls-7 {
        stroke-width: 0px;
      }

      .cls-2 {
        fill: #b5c4c9;
      }

      .cls-8 {
        clip-path: url(#clippath-2);
      }

      .cls-3, .cls-9, .cls-10 {
        fill: none;
      }

      .cls-11 {
        clip-path: url(#clippath-1);
      }

      .cls-9 {
        stroke-miterlimit: 4;
        stroke-width: 1px;
      }

      .cls-9, .cls-10 {
        stroke: #707070;
      }

      .cls-12 {
        clip-path: url(#clippath);
      }

      .cls-4 {
        fill: #a2051f;
      }

      .cls-13 {
        clip-path: url(#clippath-3);
      }

      .cls-5 {
        fill: #dede69;
      }

      .cls-10 {
        stroke-miterlimit: 4;
        stroke-width: 1px;
      }

      .cls-6 {
        fill: #e3f8ff;
      }

      .cls-7 {
        fill: #e83535;
      }
    </style>
    <clipPath id="clippath">
      <path class="cls-3" d="M65.37,8.87h0c0-.24.21-.42.44-.41l13.43.46c.24,0,.42.21.41.44h0c0,.24-.21.42-.44.41l-13.43-.46c-.24,0-.42-.21-.41-.44Z"/>
    </clipPath>
    <clipPath id="clippath-1">
      <path class="cls-3" d="M80.5,55.85h0c.02.24-.16.44-.4.46l-13.4.95c-.24.02-.44-.16-.46-.4h0c-.02-.24.16-.44.4-.46l13.4-.95c.24-.02.44.16.46.4Z"/>
    </clipPath>
    <clipPath id="clippath-2">
      <path class="cls-3" d="M21.86,7.37h0c0-.24.21-.42.44-.41l13.43.46c.24,0,.42.21.41.44h0c0,.24-.21.42-.44.41l-13.43-.46c-.24,0-.42-.21-.41-.44Z"/>
    </clipPath>
    <clipPath id="clippath-3">
      <path class="cls-3" d="M37.06,58.25h0c.01.24-.17.44-.41.45l-13.42.71c-.24.01-.44-.17-.45-.41h0c-.01-.24.17-.44.41-.45l13.42-.71c.24-.01.44.17.45.41Z"/>
    </clipPath>
  </defs>
  <g id="Rode_auto" data-name="Rode auto">
    <g id="Car_red" data-name="Car red">
      <path id="Path_29" data-name="Path 29" class="cls-7" d="M.38,43.74L0,22.98c-.1-5.37,8.79-15.42,14.16-15.52l71.98,2.41c5.37-.1,11.76,11.89,11.86,17.26l.16,8.9c.1,5.37-5.82,19.23-11.19,19.32l-71.87,3.55c-5.37.1-14.62-9.8-14.71-15.16Z"/>
      <rect id="Rectangle_41" data-name="Rectangle 41" class="cls-6" x="57.5" y="12.82" width="15.44" height="39.44" rx="6" ry="6" transform="translate(-.58 1.19) rotate(-1.04)"/>
      <g id="Rectangle_49" data-name="Rectangle 49">
        <path id="fill" class="cls-1" d="M65.37,8.87h0c0-.24.21-.42.44-.41l13.43.46c.24,0,.42.21.41.44h0c0,.24-.21.42-.44.41l-13.43-.46c-.24,0-.42-.21-.41-.44Z"/>
        <g class="cls-12">
          <path class="cls-10" d="M65.85,9.31l.03-.86M65.37,8.8l14.28.49M79.16,8.91l-.03.86M79.65,9.43l-14.28-.49"/>
        </g>
      </g>
      <path id="Rectangle_42" data-name="Rectangle 42" class="cls-5" d="M90.57,21.73l-3.34-5.33c-.75-1.2-.39-2.79.82-3.55h0c1.2-.75,2.79-.39,3.55.82l3.34,5.33c.75,1.2.39,2.79-.82,3.55h0c-1.2.75-2.79.39-3.55-.82Z"/>
      <rect id="Rectangle_43" data-name="Rectangle 43" class="cls-5" x="85.9" y="44.27" width="11.43" height="5.14" rx="2.57" ry="2.57" transform="translate(5.28 102.83) rotate(-60.04)"/>
      <g id="Rectangle_50" data-name="Rectangle 50">
        <path id="fill-2" class="cls-1" d="M80.5,55.85h0c.02.24-.16.44-.4.46l-13.4.95c-.24.02-.44-.16-.46-.4h0c-.02-.24.16-.44.4-.46l13.4-.95c.24-.02.44.16.46.4Z"/>
        <g class="cls-11">
          <path class="cls-10" d="M79.97,55.46l.06.86M80.5,55.92l-14.26,1.01M66.77,57.25l-.06-.86M66.24,56.79l14.26-1.01"/>
        </g>
      </g>
      <path id="Path_30" data-name="Path 30" class="cls-7" d="M70.32,8.25l-3.36-3.8c-.49-1.5.33-3.11,1.83-3.6l2.17-.71c1.5-.49,3.11.33,3.6,1.83l.83,6.19c.49,1.5-1.09,3.06-2.59,3.55h-.47c-1.5.5,1.7-2.36-2.01-3.46Z"/>
      <path id="Path_31" data-name="Path 31" class="cls-7" d="M71.21,56.95l-3.22,3.92c-.43,1.52.44,3.1,1.96,3.53l2.2.63c1.52.43,3.1-.44,3.53-1.96l.6-6.21c.43-1.51-1.2-3.02-2.72-3.45h-.47c-1.52-.43,1.79,2.32-1.89,3.55Z"/>
      <rect id="Rectangle_44" data-name="Rectangle 44" class="cls-2" x="22.62" y="12.97" width="5.72" height="39.44" rx="2.86" ry="2.86" transform="translate(-.59 .47) rotate(-1.04)"/>
      <path id="Rectangle_45" data-name="Rectangle 45" class="cls-4" d="M3.59,50.02l-1.82-2.91c-.75-1.2-.39-2.79.82-3.55h0c1.2-.75,2.79-.39,3.55.82l1.82,2.91c.75,1.2.39,2.79-.82,3.55h0c-1.2.75-2.79.39-3.55-.82Z"/>
      <path id="Rectangle_46" data-name="Rectangle 46" class="cls-4" d="M7.43,19.08l-1.71,2.97c-.71,1.23-2.28,1.65-3.51.94h0c-1.23-.71-1.65-2.28-.94-3.51l1.71-2.97c.71-1.23,2.28-1.65,3.51-.94h0c1.23.71,1.65,2.28.94,3.51Z"/>
      <g id="Rectangle_47" data-name="Rectangle 47">
        <path id="fill-3" class="cls-1" d="M21.86,7.37h0c0-.24.21-.42.44-.41l13.43.46c.24,0,.42.21.41.44h0c0,.24-.21.42-.44.41l-13.43-.46c-.24,0-.42-.21-.41-.44Z"/>
        <g class="cls-8">
          <path class="cls-10" d="M22.34,7.82l.03-.86M21.86,7.3l14.28.49M35.66,7.41l-.03.86M36.14,7.93l-14.28-.49"/>
        </g>
      </g>
      <g id="Rectangle_48" data-name="Rectangle 48">
        <path id="fill-4" class="cls-1" d="M37.06,58.25h0c.01.24-.17.44-.41.45l-13.42.71c-.24.01-.44-.17-.45-.41h0c-.01-.24.17-.44.41-.45l13.42-.71c.24-.01.44.17.45.41Z"/>
        <g class="cls-13">
          <path class="cls-9" d="M36.54,57.85l.05.86M37.07,58.32l-14.27.76M23.32,59.41l-.05-.86M22.79,58.94l14.27-.76"/>
        </g>
      </g>
    </g>
  </g>
</svg>